************************************************** ***********************
Zara Nach Ke Dikha - EP02 - 2MAY - iND - XviD
************************************************** ***********************

Original Ripper: SMARTRAN63


Format : Matroska
File size : 173 MiB
Duration : 1h 4mn
Overall bit rate : 378 Kbps
Encoded date : UTC 2010-05-04 06:46:24
Writing application : mkvmerge v3.2.0 ('Beginnings') built on Feb 12 2010 16:46:17
Writing library : libebml v0.7.9 + libmatroska v0.8.1

Video
ID : 1
Format : AVC
Format/Info : Advanced Video Codec
Format profile : High@L2.1
Format settings, CABAC : Yes
Format settings, ReFrames : 3 frames
Muxing mode : Container profile=Unknown@2.1
Codec ID : V_MPEG4/ISO/AVC
Duration : 1h 4mn
Bit rate : 322 Kbps
Nominal bit rate : 329 Kbps
Width : 512 pixels
Height : 384 pixels
Display aspect ratio : 4:3
Frame rate : 25.000 fps
Resolution : 24 bits
Colorimetry : 4:2:0
Scan type : Progressive
Bits/(Pixel*Frame) : 0.066
Stream size : 148 MiB (85%)
Writing library : x264 core 80 r1376M 3feaec2
Audio
ID : 2
Format : MPEG Audio
Format version : Version 2
Format profile : Layer 3
Format_Settings_Mode : Joint stereo / MS Stereo
Codec ID : A_MPEG/L3
Codec ID/Hint : MP3
Duration : 1h 4mn
Bit rate mode : Constant
Bit rate : 48.0 Kbps
Channel(s) : 2 channels
Sampling rate : 22.05 KHz
Resolution : 16 bits
Stream size : 22.0 MiB (13%)
